<svg width="1024" height="1024" viewBox="0 0 1024 1024" fill="none" xmlns="http://www.w3.org/2000/svg">
<rect width="1024" height="1024" rx="70" fill="url(#paint0_linear_114_1358)"/>
<g filter="url(#filter0_d_114_1358)">
<path d="M218.4 740.2H277.2C293.067 740.2 305.733 744.4 315.2 752.8C324.667 761.067 329.4 772.6 329.4 787.4C329.4 802.6 324.667 814.267 315.2 822.4C305.867 830.533 293.2 834.6 277.2 834.6H248.8V880H218.4V740.2ZM272.8 809.2C290 809.2 298.6 801.933 298.6 787.4C298.6 779.267 296.267 773.6 291.6 770.4C287.067 767.2 280.8 765.6 272.8 765.6H248.8V809.2H272.8ZM421.478 740.2H451.278L507.078 880H476.078L464.078 849.6H408.678L396.678 880H365.478L421.478 740.2ZM456.078 825.4L436.278 772.2L416.478 825.4H456.078ZM602.986 883C594.453 883 585.986 882.2 577.586 880.6C569.186 879 562.319 876.867 556.986 874.2V847.4C564.053 850.867 571.386 853.467 578.986 855.2C586.586 856.933 593.853 857.8 600.786 857.8C608.519 857.8 614.386 856.467 618.386 853.8C622.386 851.133 624.386 847.4 624.386 842.6C624.386 839.133 623.386 836.2 621.386 833.8C619.386 831.4 616.453 829.267 612.586 827.4C608.853 825.4 603.053 822.8 595.186 819.6C582.119 814.267 572.653 808.333 566.786 801.8C560.919 795.133 557.986 786.933 557.986 777.2C557.986 769.333 560.119 762.4 564.386 756.4C568.653 750.267 574.653 745.533 582.386 742.2C590.119 738.867 599.053 737.2 609.186 737.2C617.453 737.2 624.786 737.867 631.186 739.2C637.586 740.533 643.853 742.6 649.986 745.4V771.4C638.253 765.533 626.519 762.6 614.786 762.6C607.319 762.6 601.453 763.933 597.186 766.6C592.919 769.133 590.786 772.8 590.786 777.6C590.786 781.067 591.786 783.933 593.786 786.2C595.786 788.467 598.586 790.467 602.186 792.2C605.786 793.933 611.653 796.467 619.786 799.8C629.253 803.8 636.653 807.667 641.986 811.4C647.319 815 651.253 819.333 653.786 824.4C656.319 829.333 657.586 835.467 657.586 842.8C657.586 855.467 652.986 865.333 643.786 872.4C634.719 879.467 621.119 883 602.986 883ZM755.627 883C747.093 883 738.627 882.2 730.227 880.6C721.827 879 714.96 876.867 709.627 874.2V847.4C716.693 850.867 724.027 853.467 731.627 855.2C739.227 856.933 746.493 857.8 753.427 857.8C761.16 857.8 767.027 856.467 771.027 853.8C775.027 851.133 777.027 847.4 777.027 842.6C777.027 839.133 776.027 836.2 774.027 833.8C772.027 831.4 769.093 829.267 765.227 827.4C761.493 825.4 755.693 822.8 747.827 819.6C734.76 814.267 725.293 808.333 719.427 801.8C713.56 795.133 710.627 786.933 710.627 777.2C710.627 769.333 712.76 762.4 717.027 756.4C721.293 750.267 727.293 745.533 735.027 742.2C742.76 738.867 751.693 737.2 761.827 737.2C770.093 737.2 777.427 737.867 783.827 739.2C790.227 740.533 796.493 742.6 802.627 745.4V771.4C790.893 765.533 779.16 762.6 767.427 762.6C759.96 762.6 754.093 763.933 749.827 766.6C745.56 769.133 743.427 772.8 743.427 777.6C743.427 781.067 744.427 783.933 746.427 786.2C748.427 788.467 751.227 790.467 754.827 792.2C758.427 793.933 764.293 796.467 772.427 799.8C781.893 803.8 789.293 807.667 794.627 811.4C799.96 815 803.893 819.333 806.427 824.4C808.96 829.333 810.227 835.467 810.227 842.8C810.227 855.467 805.627 865.333 796.427 872.4C787.36 879.467 773.76 883 755.627 883Z" fill="white"/>
</g>
<g filter="url(#filter1_d_114_1358)">
<mask id="mask0_114_1358" style="mask-type:luminance" maskUnits="userSpaceOnUse" x="160" y="177" width="705" height="485">
<path d="M160 177H865V661.794H160V177Z" fill="white"/>
</mask>
<g mask="url(#mask0_114_1358)">
<path d="M829.039 438.212C816.083 456.992 763.381 476.228 755.205 479.128C754.678 479.313 754.16 479.533 753.643 479.761C752.128 480.429 747.122 481.712 739.792 474.409C733.347 468.012 722.253 451.772 716.608 443.291C714.773 440.523 716.09 436.876 719.346 435.725L817.71 400.767C819.799 400.028 822.152 400.565 823.629 402.12C829.03 407.806 839.973 422.359 829.039 438.212ZM803.201 576.165C796.389 577.975 786.641 579.232 773.016 578.467C768.18 578.195 763.56 576.49 759.834 573.599L729.018 549.687C724.417 546.119 725.227 539.291 730.571 536.768C742.182 531.311 762.534 524.263 787.723 526.109C798.421 526.891 807.718 533.253 811.641 542.586C813.316 546.585 814.888 551.4 815.96 557.06C817.56 565.54 812.065 573.801 803.201 576.165ZM308.395 443.291C302.75 451.772 291.666 468.012 285.22 474.409C277.881 481.712 272.885 480.429 271.36 479.761C270.852 479.533 270.335 479.313 269.808 479.128C261.631 476.228 208.93 456.992 195.973 438.212C185.03 422.359 195.973 407.806 201.374 402.12C202.851 400.565 205.213 400.028 207.302 400.767L305.667 435.725C308.913 436.876 310.23 440.523 308.395 443.291ZM295.994 549.687L265.169 573.599C261.443 576.49 256.823 578.195 251.996 578.467C238.371 579.232 228.623 577.975 221.811 576.165C212.947 573.801 207.443 565.54 209.052 557.06C210.125 551.4 211.687 546.585 213.361 542.586C217.295 533.253 226.581 526.891 237.28 526.109C262.478 524.263 282.821 531.311 294.432 536.768C299.776 539.291 300.595 546.119 295.994 549.687ZM276.771 299.837C280.149 289.96 291.223 264.448 325.624 219.446C332.718 210.157 343.896 204.33 356.091 203.566C387.603 201.597 453.082 198.021 512.501 198.021C571.93 198.021 637.41 201.597 668.921 203.566C681.106 204.33 692.285 210.157 699.379 219.446C733.78 264.448 744.864 289.96 748.242 299.837C749.051 302.201 747.664 323.036 745.001 323L627.478 313.5L512.501 308.959L396.779 313.5L281.057 323C278.395 323.036 275.952 302.201 276.771 299.837ZM865.001 586.868L862.132 430.549C860.306 384.606 792.127 325.814 792.127 325.814C799.071 322.299 806.767 320.261 814.662 319.935C825.821 319.478 841.666 315.849 837.856 298.405C833.65 279.159 802.138 274.563 785.399 273.482C780.148 273.148 775.999 277.595 777.062 282.42L782.915 308.959C782.915 308.968 782.915 308.986 782.924 309.003C783.348 310.998 780.431 312 779.32 310.26L774.117 302.078C732.905 236.046 714.923 212.635 699.812 200.525C692.962 195.033 684.757 191.219 675.941 189.391C610.64 175.84 512.501 177.035 512.501 177.035C512.501 177.035 414.372 175.84 349.062 189.391C340.255 191.219 332.041 195.033 325.191 200.525C310.079 212.635 292.108 236.046 250.895 302.078L245.692 310.26C244.572 312 241.665 310.998 242.088 309.003C242.088 308.986 242.088 308.968 242.097 308.959L247.941 282.42C249.004 277.595 244.854 273.148 239.613 273.482C222.874 274.563 191.363 279.159 187.157 298.405C183.346 315.849 199.191 319.478 210.35 319.935C218.235 320.261 225.942 322.299 232.886 325.814C232.886 325.814 164.697 384.606 162.881 430.549L160.011 586.868C159.888 593.354 162.636 599.558 167.529 604.014V622.231C167.529 643.99 186.583 661.794 209.871 661.794H287.535C303.324 661.794 316.243 649.728 316.243 634.973V623.655H708.76V634.973C708.76 649.728 721.679 661.794 737.468 661.794H815.142C838.43 661.794 857.474 643.99 857.474 622.231V604.014C862.367 599.558 865.114 593.354 865.001 586.868Z" fill="white"/>
</g>
</g>
<path d="M510.377 684.539C501.94 682.604 493.708 679.839 485.685 676.255C477.667 672.67 469.975 668.318 462.61 663.196C455.246 658.069 448.319 652.258 441.837 645.746C435.349 639.239 429.403 632.138 423.988 624.442C418.524 616.724 413.674 608.529 409.433 599.851C405.193 591.174 401.62 582.149 398.725 572.77C395.83 563.386 393.651 553.794 392.184 543.983C390.721 534.173 389.99 524.289 390 514.333V402.94L510.377 375H514.725L635 402.94V514.333C635.019 524.284 634.298 534.167 632.84 543.972C631.388 553.783 629.214 563.38 626.328 572.759C623.438 582.137 619.88 591.168 615.649 599.846C611.414 608.523 606.569 616.718 601.114 624.442C595.694 632.127 589.738 639.222 583.251 645.724C576.758 652.225 569.837 658.036 562.472 663.157C555.112 668.278 547.421 672.631 539.403 676.226C531.385 679.816 523.162 682.587 514.725 684.539H514.735L512.5 685L510.377 684.539Z" fill="#287845"/>
<g filter="url(#filter2_d_114_1358)">
<path d="M510.677 675.336C502.78 673.517 495.074 670.917 487.564 667.547C480.059 664.178 472.86 660.085 465.966 655.271C459.072 650.451 452.589 644.987 446.521 638.865C440.449 632.747 434.883 626.071 429.814 618.836C424.699 611.58 420.16 603.875 416.191 595.717C412.221 587.559 408.877 579.073 406.167 570.256C403.457 561.434 401.418 552.416 400.044 543.192C398.676 533.969 397.991 524.677 398 515.317V410.59L510.677 384.322H514.747L627.328 410.59V515.317C627.346 524.672 626.671 533.964 625.307 543.182C623.947 552.405 621.912 561.428 619.212 570.246C616.506 579.063 613.176 587.553 609.215 595.711C605.251 603.87 600.716 611.574 595.61 618.836C590.537 626.061 584.962 632.732 578.889 638.844C572.812 644.956 566.334 650.419 559.44 655.234C552.551 660.048 545.351 664.141 537.846 667.521C530.341 670.896 522.644 673.501 514.747 675.336L514.505 675.389L512.753 675.847L510.677 675.336ZM467.973 507.702L499.691 544.674L557.355 477.247L572.128 494.349L499.691 578.994L453.201 524.809L467.973 507.702ZM445.819 603.495C450.034 609.486 454.656 615.023 459.679 620.117C464.707 625.206 470.063 629.778 475.752 633.823C481.442 637.873 487.386 641.343 493.582 644.238C499.778 647.128 506.138 649.406 512.666 651.057C519.195 649.412 525.555 647.144 531.755 644.254C537.951 641.364 543.896 637.894 549.585 633.844C555.279 629.794 560.635 625.222 565.658 620.128C570.682 615.034 575.299 609.491 579.514 603.495C583.853 597.304 587.708 590.739 591.08 583.788C594.447 576.838 597.28 569.602 599.58 562.093C601.879 554.583 603.608 546.9 604.772 539.047C605.93 531.195 606.51 523.285 606.501 515.317V430.561L512.666 408.602L418.832 430.561V515.317C418.823 523.285 419.398 531.195 420.561 539.047C421.72 546.9 423.449 554.583 425.749 562.093C428.048 569.602 430.881 576.838 434.253 583.788C437.62 590.739 441.475 597.304 445.819 603.495Z" fill="url(#paint1_linear_114_1358)"/>
<path fill-rule="evenodd" clip-rule="evenodd" d="M445.819 603.495C450.034 609.486 454.656 615.023 459.679 620.117C464.707 625.206 470.063 629.778 475.752 633.823C481.442 637.873 487.386 641.343 493.582 644.238C499.778 647.128 506.138 649.406 512.666 651.057C519.195 649.412 525.555 647.144 531.755 644.254C537.951 641.364 543.896 637.894 549.585 633.844C555.279 629.794 560.635 625.222 565.658 620.128C570.682 615.034 575.299 609.491 579.514 603.495C583.853 597.304 587.708 590.739 591.08 583.788C594.447 576.838 597.28 569.602 599.58 562.093C601.879 554.583 603.608 546.9 604.772 539.047C605.93 531.195 606.51 523.285 606.501 515.317V430.561L512.666 408.602L418.832 430.561V515.317C418.823 523.285 419.398 531.195 420.561 539.047C421.72 546.9 423.449 554.583 425.749 562.093C428.048 569.602 430.881 576.838 434.253 583.788C437.62 590.739 441.475 597.304 445.819 603.495ZM499.691 544.674L467.973 507.702L453.201 524.809L499.691 578.994L572.128 494.349L557.355 477.247L499.691 544.674Z" fill="url(#paint2_linear_114_1358)"/>
</g>
<defs>
<filter id="filter0_d_114_1358" x="214.4" y="737.2" width="599.827" height="162.8" filterUnits="userSpaceOnUse" color-interpolation-filters="sRGB">
<feFlood flood-opacity="0" result="BackgroundImageFix"/>
<feColorMatrix in="SourceAlpha" type="matrix" values="0 0 0 0 0 0 0 0 0 0 0 0 0 0 0 0 0 0 127 0" result="hardAlpha"/>
<feOffset dy="13"/>
<feGaussianBlur stdDeviation="2"/>
<feComposite in2="hardAlpha" operator="out"/>
<feColorMatrix type="matrix" values="0 0 0 0 0 0 0 0 0 0 0 0 0 0 0 0 0 0 0.25 0"/>
<feBlend mode="normal" in2="BackgroundImageFix" result="effect1_dropShadow_114_1358"/>
<feBlend mode="normal" in="SourceGraphic" in2="effect1_dropShadow_114_1358" result="shape"/>
</filter>
<filter id="filter1_d_114_1358" x="160.007" y="177.008" width="732.993" height="510.786" filterUnits="userSpaceOnUse" color-interpolation-filters="sRGB">
<feFlood flood-opacity="0" result="BackgroundImageFix"/>
<feColorMatrix in="SourceAlpha" type="matrix" values="0 0 0 0 0 0 0 0 0 0 0 0 0 0 0 0 0 0 127 0" result="hardAlpha"/>
<feOffset dx="23" dy="21"/>
<feGaussianBlur stdDeviation="2.5"/>
<feComposite in2="hardAlpha" operator="out"/>
<feColorMatrix type="matrix" values="0 0 0 0 0 0 0 0 0 0 0 0 0 0 0 0 0 0 0.25 0"/>
<feBlend mode="normal" in2="BackgroundImageFix" result="effect1_dropShadow_114_1358"/>
<feBlend mode="normal" in="SourceGraphic" in2="effect1_dropShadow_114_1358" result="shape"/>
</filter>
<filter id="filter2_d_114_1358" x="396" y="384.322" width="237.328" height="299.525" filterUnits="userSpaceOnUse" color-interpolation-filters="sRGB">
<feFlood flood-opacity="0" result="BackgroundImageFix"/>
<feColorMatrix in="SourceAlpha" type="matrix" values="0 0 0 0 0 0 0 0 0 0 0 0 0 0 0 0 0 0 127 0" result="hardAlpha"/>
<feOffset dx="2" dy="4"/>
<feGaussianBlur stdDeviation="2"/>
<feComposite in2="hardAlpha" operator="out"/>
<feColorMatrix type="matrix" values="0 0 0 0 0 0 0 0 0 0 0 0 0 0 0 0 0 0 0.25 0"/>
<feBlend mode="normal" in2="BackgroundImageFix" result="effect1_dropShadow_114_1358"/>
<feBlend mode="normal" in="SourceGraphic" in2="effect1_dropShadow_114_1358" result="shape"/>
</filter>
<linearGradient id="paint0_linear_114_1358" x1="537.5" y1="-99.5" x2="512" y2="1065" gradientUnits="userSpaceOnUse">
<stop stop-color="#31B25B"/>
<stop offset="1" stop-color="#082B15"/>
</linearGradient>
<linearGradient id="paint1_linear_114_1358" x1="512.664" y1="384.322" x2="512.664" y2="675.847" gradientUnits="userSpaceOnUse">
<stop stop-color="#00E832"/>
<stop offset="1" stop-color="#018F20"/>
</linearGradient>
<linearGradient id="paint2_linear_114_1358" x1="518.375" y1="355.995" x2="509.149" y2="687.421" gradientUnits="userSpaceOnUse">
<stop stop-color="#31B25B"/>
<stop offset="1" stop-color="#082B15"/>
</linearGradient>
</defs>
</svg>
